{
	"asset":{
		"generator":"Khronos glTF Blender I/O v3.5.30",
		"version":"2.0"
	},
	"scene":0,
	"scenes":[
		{
			"name":"Scene",
			"nodes":[
				0,
				1,
				2,
				3,
				4,
				5
			]
		}
	],
	"nodes":[
		{
			"mesh":0,
			"name":"Cube",
			"rotation":[
				-0.002561072586104274,
				-0.5578856468200684,
				0.011398890055716038,
				0.8298355937004089
			],
			"scale":[
				0.13248158991336823,
				0.29547393321990967,
				0.13248158991336823
			],
			"translation":[
				-0.5974531173706055,
				0.1440543234348297,
				0.3902674913406372
			]
		},
		{
			"mesh":1,
			"name":"Cylinder.002",
			"rotation":[
				0.42976975440979004,
				-0.5615140795707703,
				0.5615140199661255,
				0.42976969480514526
			],
			"scale":[
				0.0024875772651284933,
				0.3256959915161133,
				0.002487577497959137
			],
			"translation":[
				-0.3156347870826721,
				0.02563495934009552,
				-0.0850047767162323
			]
		},
		{
			"mesh":2,
			"name":"Text",
			"rotation":[
				0.42976969480514526,
				-0.5615140795707703,
				0.5615140199661255,
				0.4297696650028229
			],
			"scale":[
				0.13248157501220703,
				0.13248157501220703,
				0.13248158991336823
			],
			"translation":[
				-0.13541680574417114,
				0.06327633559703827,
				0.5931069850921631
			]
		},
		{
			"mesh":3,
			"name":"Text.001",
			"rotation":[
				0.42976969480514526,
				-0.5615140795707703,
				0.5615140199661255,
				0.4297696650028229
			],
			"scale":[
				0.13248157501220703,
				0.13248157501220703,
				0.13248158991336823
			],
			"translation":[
				0.010218733921647072,
				0.6916152834892273,
				-0.029147066175937653
			]
		},
		{
			"mesh":4,
			"name":"x",
			"rotation":[
				0.09315745532512665,
				0.7009434700012207,
				-0.7009434103965759,
				0.09315745532512665
			],
			"scale":[
				0.13248157501220703,
				0.13248157501220703,
				0.13248158991336823
			],
			"translation":[
				-0.5628151297569275,
				0.03397317975759506,
				-0.14498507976531982
			]
		},
		{
			"mesh":5,
			"name":"Cube.001",
			"rotation":[
				-0.002561072586104274,
				-0.5578856468200684,
				0.011398890055716038,
				0.8298355937004089
			],
			"scale":[
				0.13248158991336823,
				0.29547393321990967,
				0.13248158991336823
			],
			"translation":[
				-0.49811041355133057,
				0.17652027308940887,
				-0.05667769908905029
			]
		}
	],
	"materials":[
		{
			"doubleSided":true,
			"name":"Material",
			"pbrMetallicRoughness":{
				"baseColorFactor":[
					0.15741203725337982,
					0.019872765988111496,
					0.033446211367845535,
					1
				],
				"metallicFactor":0.6554622054100037,
				"roughnessFactor":0.5
			}
		},
		{
			"doubleSided":true,
			"name":"Material.001",
			"pbrMetallicRoughness":{
				"baseColorFactor":[
					0,
					0,
					0,
					1
				],
				"metallicFactor":0.3025210201740265,
				"roughnessFactor":0.5
			}
		}
	],
	"meshes":[
		{
			"name":"Cube",
			"primitives":[
				{
					"attributes":{
						"POSITION":0,
						"TEXCOORD_0":1,
						"NORMAL":2
					},
					"indices":3,
					"material":0
				}
			]
		},
		{
			"name":"Cylinder.003",
			"primitives":[
				{
					"attributes":{
						"POSITION":4,
						"TEXCOORD_0":5,
						"NORMAL":6
					},
					"indices":7,
					"material":1
				}
			]
		},
		{
			"name":"Text.001",
			"primitives":[
				{
					"attributes":{
						"POSITION":8,
						"TEXCOORD_0":9,
						"NORMAL":10
					},
					"indices":11,
					"material":1
				}
			]
		},
		{
			"name":"Text.002",
			"primitives":[
				{
					"attributes":{
						"POSITION":12,
						"TEXCOORD_0":13,
						"NORMAL":14
					},
					"indices":15,
					"material":1
				}
			]
		},
		{
			"name":"Text",
			"primitives":[
				{
					"attributes":{
						"POSITION":16,
						"TEXCOORD_0":17,
						"NORMAL":18
					},
					"indices":19,
					"material":1
				}
			]
		},
		{
			"name":"Cube.001",
			"primitives":[
				{
					"attributes":{
						"POSITION":20,
						"TEXCOORD_0":21,
						"NORMAL":22
					},
					"indices":3,
					"material":0
				}
			]
		}
	],
	"accessors":[
		{
			"bufferView":0,
			"componentType":5126,
			"count":24,
			"max":[
				2.047135591506958,
				0.6219744682312012,
				1.723201036453247
			],
			"min":[
				-1.2548083066940308,
				-0.3165663480758667,
				-2.186291456222534
			],
			"type":"VEC3"
		},
		{
			"bufferView":1,
			"componentType":5126,
			"count":24,
			"type":"VEC2"
		},
		{
			"bufferView":2,
			"componentType":5126,
			"count":24,
			"type":"VEC3"
		},
		{
			"bufferView":3,
			"componentType":5123,
			"count":36,
			"type":"SCALAR"
		},
		{
			"bufferView":4,
			"componentType":5126,
			"count":576,
			"max":[
				262.4344482421875,
				1,
				1.0000114440917969
			],
			"min":[
				-1.000035047531128,
				-1.0207176208496094,
				-261.85845947265625
			],
			"type":"VEC3"
		},
		{
			"bufferView":5,
			"componentType":5126,
			"count":576,
			"type":"VEC2"
		},
		{
			"bufferView":6,
			"componentType":5126,
			"count":576,
			"type":"VEC3"
		},
		{
			"bufferView":7,
			"componentType":5123,
			"count":1116,
			"type":"SCALAR"
		},
		{
			"bufferView":8,
			"componentType":5126,
			"count":48,
			"max":[
				0.43800002336502075,
				0.2718382775783539,
				0.23000000417232513
			],
			"min":[
				0,
				0,
				-0.4490000307559967
			],
			"type":"VEC3"
		},
		{
			"bufferView":9,
			"componentType":5126,
			"count":48,
			"type":"VEC2"
		},
		{
			"bufferView":10,
			"componentType":5126,
			"count":48,
			"type":"VEC3"
		},
		{
			"bufferView":11,
			"componentType":5123,
			"count":84,
			"type":"SCALAR"
		},
		{
			"bufferView":12,
			"componentType":5126,
			"count":48,
			"max":[
				0.4050000309944153,
				0.12757548689842224,
				0
			],
			"min":[
				0.01100000087171793,
				0,
				-0.4490000307559967
			],
			"type":"VEC3"
		},
		{
			"bufferView":13,
			"componentType":5126,
			"count":48,
			"type":"VEC2"
		},
		{
			"bufferView":14,
			"componentType":5126,
			"count":48,
			"type":"VEC3"
		},
		{
			"bufferView":15,
			"componentType":5123,
			"count":84,
			"type":"SCALAR"
		},
		{
			"bufferView":16,
			"componentType":5126,
			"count":72,
			"max":[
				0.5,
				0.1992180198431015,
				8.881784197001252e-16
			],
			"min":[
				0,
				0,
				-0.4490000307559967
			],
			"type":"VEC3"
		},
		{
			"bufferView":17,
			"componentType":5126,
			"count":72,
			"type":"VEC2"
		},
		{
			"bufferView":18,
			"componentType":5126,
			"count":72,
			"type":"VEC3"
		},
		{
			"bufferView":19,
			"componentType":5123,
			"count":132,
			"type":"SCALAR"
		},
		{
			"bufferView":20,
			"componentType":5126,
			"count":24,
			"max":[
				2.047135591506958,
				0.6219744682312012,
				1.723201036453247
			],
			"min":[
				-1.2548083066940308,
				-0.3165663480758667,
				-2.186291456222534
			],
			"type":"VEC3"
		},
		{
			"bufferView":21,
			"componentType":5126,
			"count":24,
			"type":"VEC2"
		},
		{
			"bufferView":22,
			"componentType":5126,
			"count":24,
			"type":"VEC3"
		}
	],
	"bufferViews":[
		{
			"buffer":0,
			"byteLength":288,
			"byteOffset":0,
			"target":34962
		},
		{
			"buffer":0,
			"byteLength":192,
			"byteOffset":288,
			"target":34962
		},
		{
			"buffer":0,
			"byteLength":288,
			"byteOffset":480,
			"target":34962
		},
		{
			"buffer":0,
			"byteLength":72,
			"byteOffset":768,
			"target":34963
		},
		{
			"buffer":0,
			"byteLength":6912,
			"byteOffset":840,
			"target":34962
		},
		{
			"buffer":0,
			"byteLength":4608,
			"byteOffset":7752,
			"target":34962
		},
		{
			"buffer":0,
			"byteLength":6912,
			"byteOffset":12360,
			"target":34962
		},
		{
			"buffer":0,
			"byteLength":2232,
			"byteOffset":19272,
			"target":34963
		},
		{
			"buffer":0,
			"byteLength":576,
			"byteOffset":21504,
			"target":34962
		},
		{
			"buffer":0,
			"byteLength":384,
			"byteOffset":22080,
			"target":34962
		},
		{
			"buffer":0,
			"byteLength":576,
			"byteOffset":22464,
			"target":34962
		},
		{
			"buffer":0,
			"byteLength":168,
			"byteOffset":23040,
			"target":34963
		},
		{
			"buffer":0,
			"byteLength":576,
			"byteOffset":23208,
			"target":34962
		},
		{
			"buffer":0,
			"byteLength":384,
			"byteOffset":23784,
			"target":34962
		},
		{
			"buffer":0,
			"byteLength":576,
			"byteOffset":24168,
			"target":34962
		},
		{
			"buffer":0,
			"byteLength":168,
			"byteOffset":24744,
			"target":34963
		},
		{
			"buffer":0,
			"byteLength":864,
			"byteOffset":24912,
			"target":34962
		},
		{
			"buffer":0,
			"byteLength":576,
			"byteOffset":25776,
			"target":34962
		},
		{
			"buffer":0,
			"byteLength":864,
			"byteOffset":26352,
			"target":34962
		},
		{
			"buffer":0,
			"byteLength":264,
			"byteOffset":27216,
			"target":34963
		},
		{
			"buffer":0,
			"byteLength":288,
			"byteOffset":27480,
			"target":34962
		},
		{
			"buffer":0,
			"byteLength":192,
			"byteOffset":27768,
			"target":34962
		},
		{
			"buffer":0,
			"byteLength":288,
			"byteOffset":27960,
			"target":34962
		}
	],
	"buffers":[
		{
			"byteLength":28248,
			"uri":"data:application/octet-stream;base64,"
		}
	]
}
