{
	"asset":{
		"generator":"Khronos glTF Blender I/O v3.5.30",
		"version":"2.0"
	},
	"scene":0,
	"scenes":[
		{
			"name":"Scene",
			"nodes":[
				0,
				1,
				2,
				3,
				4,
				5,
				6,
				7,
				8,
				9,
				10,
				11,
				12,
				13,
				14
			]
		}
	],
	"nodes":[
		{
			"mesh":0,
			"name":"Cylinder",
			"rotation":[
				0.11878622323274612,
				0.061805080622434616,
				0.40042516589164734,
				0.9064931869506836
			],
			"scale":[
				0.002599881961941719,
				0.30494749546051025,
				0.002599881961941719
			],
			"translation":[
				-0.1488254815340042,
				0.17531144618988037,
				0.33226850628852844
			]
		},
		{
			"mesh":1,
			"name":"Cylinder.001",
			"rotation":[
				0.19788989424705505,
				-0.8040081858634949,
				-0.5515740513801575,
				0.10087861120700836
			],
			"scale":[
				0.002599881961941719,
				0.30494749546051025,
				0.002599881961941719
			],
			"translation":[
				-0.589479386806488,
				-0.2705402374267578,
				4.483261585235596
			]
		},
		{
			"mesh":2,
			"name":"Circle",
			"rotation":[
				0.5932338237762451,
				0.42423322796821594,
				-0.44804900884628296,
				0.5170609354972839
			],
			"scale":[
				0.2201029658317566,
				0.2201029658317566,
				0.2201029658317566
			],
			"translation":[
				-0.5140395760536194,
				-0.4408838152885437,
				4.135812759399414
			]
		},
		{
			"name":"Circle.001",
			"rotation":[
				0.5932338237762451,
				0.42423322796821594,
				-0.44804900884628296,
				0.5170609354972839
			],
			"scale":[
				0.2201029658317566,
				0.2201029658317566,
				0.2201029658317566
			],
			"translation":[
				-0.5140395760536194,
				-0.4408838152885437,
				4.135812759399414
			]
		},
		{
			"mesh":3,
			"name":"Text.003",
			"rotation":[
				0.11283296346664429,
				-0.7075761556625366,
				0.6873164772987366,
				0.11916720867156982
			],
			"scale":[
				0.07073165476322174,
				0.07073163986206055,
				0.07073165476322174
			],
			"translation":[
				-0.34108155965805054,
				0.39438730478286743,
				0.4163789749145508
			]
		},
		{
			"mesh":4,
			"name":"Text.005",
			"rotation":[
				0.1128329411149025,
				-0.7075761556625366,
				0.6873164772987366,
				0.11916722357273102
			],
			"scale":[
				0.07433760911226273,
				0.07433760911226273,
				0.07433761656284332
			],
			"translation":[
				0.08868835866451263,
				0.0003969557583332062,
				0.25177279114723206
			]
		},
		{
			"mesh":5,
			"name":"Text.002",
			"rotation":[
				0,
				-0.7071068286895752,
				0.7071068286895752,
				1.1520233300643667e-07
			],
			"scale":[
				0.13973812758922577,
				0.13973812758922577,
				0.13973812758922577
			],
			"translation":[
				-1.6771577596664429,
				0.48260557651519775,
				-3.429743528366089
			]
		},
		{
			"mesh":6,
			"name":"x.001",
			"rotation":[
				0.6948563456535339,
				0.07015374302864075,
				-0.05412760749459267,
				0.7136688828468323
			],
			"scale":[
				0.13248158991336823,
				0.13248157501220703,
				0.13248158991336823
			],
			"translation":[
				3.2052485942840576,
				0.19451667368412018,
				-2.6106514930725098
			]
		},
		{
			"mesh":7,
			"name":"Text.004",
			"rotation":[
				0.44173139333724976,
				0.5409438610076904,
				-0.542914092540741,
				0.46636611223220825
			],
			"scale":[
				0.13248157501220703,
				0.13248157501220703,
				0.13248158991336823
			],
			"translation":[
				2.621243953704834,
				0.841030478477478,
				-2.487208843231201
			]
		},
		{
			"mesh":8,
			"name":"Text.006",
			"rotation":[
				0.44173139333724976,
				0.5409438610076904,
				-0.542914092540741,
				0.46636611223220825
			],
			"scale":[
				0.13248157501220703,
				0.13248157501220703,
				0.13248158991336823
			],
			"translation":[
				2.503680467605591,
				0.19443492591381073,
				-3.0965628623962402
			]
		},
		{
			"mesh":9,
			"name":"Cylinder.003",
			"rotation":[
				0.44173142313957214,
				0.5409439206123352,
				-0.5429141521453857,
				0.466366171836853
			],
			"scale":[
				0.0024875772651284933,
				0.3256959915161133,
				0.002487577497959137
			],
			"translation":[
				2.9563472270965576,
				0.18122826516628265,
				-2.5593016147613525
			]
		},
		{
			"mesh":10,
			"name":"Cylinder.002",
			"rotation":[
				0.42976975440979004,
				-0.5615140795707703,
				0.5615140199661255,
				0.42976969480514526
			],
			"scale":[
				0.0024875772651284933,
				0.3256959915161133,
				0.002487577497959137
			],
			"translation":[
				-0.07795371860265732,
				-0.09241689741611481,
				0.1396295428276062
			]
		},
		{
			"mesh":11,
			"name":"Text",
			"rotation":[
				0.42976969480514526,
				-0.5615140795707703,
				0.5615140199661255,
				0.4297696650028229
			],
			"scale":[
				0.13248157501220703,
				0.13248157501220703,
				0.13248158991336823
			],
			"translation":[
				0.10226431488990784,
				-0.05477551370859146,
				0.8177416324615479
			]
		},
		{
			"mesh":12,
			"name":"Text.001",
			"rotation":[
				0.42976969480514526,
				-0.5615140795707703,
				0.5615140199661255,
				0.4297696650028229
			],
			"scale":[
				0.13248157501220703,
				0.13248157501220703,
				0.13248158991336823
			],
			"translation":[
				0.24789991974830627,
				0.5735635161399841,
				0.19548767805099487
			]
		},
		{
			"mesh":13,
			"name":"x",
			"rotation":[
				0.09315745532512665,
				0.7009434700012207,
				-0.7009434103965759,
				0.09315745532512665
			],
			"scale":[
				0.13248157501220703,
				0.13248157501220703,
				0.13248158991336823
			],
			"translation":[
				-0.32513412833213806,
				-0.08407868444919586,
				0.07964962720870972
			]
		}
	],
	"materials":[
		{
			"doubleSided":true,
			"name":"Material.001",
			"pbrMetallicRoughness":{
				"baseColorFactor":[
					0,
					0,
					0,
					1
				],
				"metallicFactor":0.3025210201740265,
				"roughnessFactor":0.5
			}
		},
		{
			"doubleSided":true,
			"name":"Material.008",
			"pbrMetallicRoughness":{
				"baseColorFactor":[
					0,
					0,
					0,
					1
				],
				"metallicFactor":0.3025210201740265,
				"roughnessFactor":0.5
			}
		}
	],
	"meshes":[
		{
			"name":"Cylinder",
			"primitives":[
				{
					"attributes":{
						"POSITION":0,
						"TEXCOORD_0":1,
						"NORMAL":2
					},
					"indices":3,
					"material":0
				}
			]
		},
		{
			"name":"Cylinder.001",
			"primitives":[
				{
					"attributes":{
						"POSITION":4,
						"TEXCOORD_0":5,
						"NORMAL":6
					},
					"indices":3,
					"material":0
				}
			]
		},
		{
			"name":"Circle",
			"primitives":[
				{
					"attributes":{
						"POSITION":7,
						"TEXCOORD_0":8,
						"NORMAL":9
					},
					"indices":10,
					"material":0
				}
			]
		},
		{
			"name":"Text.003",
			"primitives":[
				{
					"attributes":{
						"POSITION":11,
						"TEXCOORD_0":12,
						"NORMAL":13
					},
					"indices":14,
					"material":0
				}
			]
		},
		{
			"name":"Text.004",
			"primitives":[
				{
					"attributes":{
						"POSITION":15,
						"TEXCOORD_0":16,
						"NORMAL":17
					},
					"indices":18,
					"material":0
				}
			]
		},
		{
			"name":"Text.005",
			"primitives":[
				{
					"attributes":{
						"POSITION":19,
						"TEXCOORD_0":20,
						"NORMAL":21
					},
					"indices":22
				}
			]
		},
		{
			"name":"Text.005",
			"primitives":[
				{
					"attributes":{
						"POSITION":23,
						"TEXCOORD_0":24,
						"NORMAL":25
					},
					"indices":26,
					"material":1
				}
			]
		},
		{
			"name":"Text.006",
			"primitives":[
				{
					"attributes":{
						"POSITION":27,
						"TEXCOORD_0":28,
						"NORMAL":29
					},
					"indices":30,
					"material":1
				}
			]
		},
		{
			"name":"Text.007",
			"primitives":[
				{
					"attributes":{
						"POSITION":31,
						"TEXCOORD_0":32,
						"NORMAL":33
					},
					"indices":34,
					"material":1
				}
			]
		},
		{
			"name":"Cylinder.002",
			"primitives":[
				{
					"attributes":{
						"POSITION":35,
						"TEXCOORD_0":36,
						"NORMAL":37
					},
					"indices":38,
					"material":1
				}
			]
		},
		{
			"name":"Cylinder.003",
			"primitives":[
				{
					"attributes":{
						"POSITION":39,
						"TEXCOORD_0":40,
						"NORMAL":41
					},
					"indices":38,
					"material":0
				}
			]
		},
		{
			"name":"Text.001",
			"primitives":[
				{
					"attributes":{
						"POSITION":42,
						"TEXCOORD_0":43,
						"NORMAL":44
					},
					"indices":34,
					"material":0
				}
			]
		},
		{
			"name":"Text.002",
			"primitives":[
				{
					"attributes":{
						"POSITION":45,
						"TEXCOORD_0":46,
						"NORMAL":47
					},
					"indices":30,
					"material":0
				}
			]
		},
		{
			"name":"Text",
			"primitives":[
				{
					"attributes":{
						"POSITION":48,
						"TEXCOORD_0":49,
						"NORMAL":50
					},
					"indices":26,
					"material":0
				}
			]
		}
	],
	"accessors":[
		{
			"bufferView":0,
			"componentType":5126,
			"count":192,
			"max":[
				1,
				1,
				1
			],
			"min":[
				-1,
				-1,
				-1
			],
			"type":"VEC3"
		},
		{
			"bufferView":1,
			"componentType":5126,
			"count":192,
			"type":"VEC2"
		},
		{
			"bufferView":2,
			"componentType":5126,
			"count":192,
			"type":"VEC3"
		},
		{
			"bufferView":3,
			"componentType":5123,
			"count":372,
			"type":"SCALAR"
		},
		{
			"bufferView":4,
			"componentType":5126,
			"count":192,
			"max":[
				1,
				1,
				1
			],
			"min":[
				-1,
				-1,
				-1
			],
			"type":"VEC3"
		},
		{
			"bufferView":5,
			"componentType":5126,
			"count":192,
			"type":"VEC2"
		},
		{
			"bufferView":6,
			"componentType":5126,
			"count":192,
			"type":"VEC3"
		},
		{
			"bufferView":7,
			"componentType":5126,
			"count":30,
			"max":[
				-0.7071067690849304,
				0,
				-0.5555702447891235
			],
			"min":[
				-0.8483433127403259,
				-0.031299151480197906,
				-0.7155436277389526
			],
			"type":"VEC3"
		},
		{
			"bufferView":8,
			"componentType":5126,
			"count":30,
			"type":"VEC2"
		},
		{
			"bufferView":9,
			"componentType":5126,
			"count":30,
			"type":"VEC3"
		},
		{
			"bufferView":10,
			"componentType":5123,
			"count":48,
			"type":"SCALAR"
		},
		{
			"bufferView":11,
			"componentType":5126,
			"count":511,
			"max":[
				0.4660000205039978,
				0.29510995745658875,
				0.009000000543892384
			],
			"min":[
				0.05900000408291817,
				0,
				-0.6820000410079956
			],
			"type":"VEC3"
		},
		{
			"bufferView":12,
			"componentType":5126,
			"count":511,
			"type":"VEC2"
		},
		{
			"bufferView":13,
			"componentType":5126,
			"count":511,
			"type":"VEC3"
		},
		{
			"bufferView":14,
			"componentType":5123,
			"count":912,
			"type":"SCALAR"
		},
		{
			"bufferView":15,
			"componentType":5126,
			"count":889,
			"max":[
				0.41100001335144043,
				0.12164556235074997,
				0.009000000543892384
			],
			"min":[
				0.026000000536441803,
				0,
				-0.4580000340938568
			],
			"type":"VEC3"
		},
		{
			"bufferView":16,
			"componentType":5126,
			"count":889,
			"type":"VEC2"
		},
		{
			"bufferView":17,
			"componentType":5126,
			"count":889,
			"type":"VEC3"
		},
		{
			"bufferView":18,
			"componentType":5123,
			"count":1584,
			"type":"SCALAR"
		},
		{
			"bufferView":19,
			"componentType":5126,
			"count":174,
			"max":[
				0.41100001335144043,
				0,
				0.009000000543892384
			],
			"min":[
				0.026000000536441803,
				0,
				-0.4580000340938568
			],
			"type":"VEC3"
		},
		{
			"bufferView":20,
			"componentType":5126,
			"count":174,
			"type":"VEC2"
		},
		{
			"bufferView":21,
			"componentType":5126,
			"count":174,
			"type":"VEC3"
		},
		{
			"bufferView":22,
			"componentType":5123,
			"count":522,
			"type":"SCALAR"
		},
		{
			"bufferView":23,
			"componentType":5126,
			"count":72,
			"max":[
				0.5,
				0.1992180198431015,
				8.881784197001252e-16
			],
			"min":[
				0,
				0,
				-0.4490000307559967
			],
			"type":"VEC3"
		},
		{
			"bufferView":24,
			"componentType":5126,
			"count":72,
			"type":"VEC2"
		},
		{
			"bufferView":25,
			"componentType":5126,
			"count":72,
			"type":"VEC3"
		},
		{
			"bufferView":26,
			"componentType":5123,
			"count":132,
			"type":"SCALAR"
		},
		{
			"bufferView":27,
			"componentType":5126,
			"count":48,
			"max":[
				0.4050000309944153,
				0.12757548689842224,
				0
			],
			"min":[
				0.01100000087171793,
				0,
				-0.4490000307559967
			],
			"type":"VEC3"
		},
		{
			"bufferView":28,
			"componentType":5126,
			"count":48,
			"type":"VEC2"
		},
		{
			"bufferView":29,
			"componentType":5126,
			"count":48,
			"type":"VEC3"
		},
		{
			"bufferView":30,
			"componentType":5123,
			"count":84,
			"type":"SCALAR"
		},
		{
			"bufferView":31,
			"componentType":5126,
			"count":48,
			"max":[
				0.43800002336502075,
				0.2718382775783539,
				0.23000000417232513
			],
			"min":[
				0,
				0,
				-0.4490000307559967
			],
			"type":"VEC3"
		},
		{
			"bufferView":32,
			"componentType":5126,
			"count":48,
			"type":"VEC2"
		},
		{
			"bufferView":33,
			"componentType":5126,
			"count":48,
			"type":"VEC3"
		},
		{
			"bufferView":34,
			"componentType":5123,
			"count":84,
			"type":"SCALAR"
		},
		{
			"bufferView":35,
			"componentType":5126,
			"count":576,
			"max":[
				262.4344482421875,
				1,
				1.0000114440917969
			],
			"min":[
				-1.000035047531128,
				-1.0207176208496094,
				-261.85845947265625
			],
			"type":"VEC3"
		},
		{
			"bufferView":36,
			"componentType":5126,
			"count":576,
			"type":"VEC2"
		},
		{
			"bufferView":37,
			"componentType":5126,
			"count":576,
			"type":"VEC3"
		},
		{
			"bufferView":38,
			"componentType":5123,
			"count":1116,
			"type":"SCALAR"
		},
		{
			"bufferView":39,
			"componentType":5126,
			"count":576,
			"max":[
				262.4344482421875,
				1,
				1.0000114440917969
			],
			"min":[
				-1.000035047531128,
				-1.0207176208496094,
				-261.85845947265625
			],
			"type":"VEC3"
		},
		{
			"bufferView":40,
			"componentType":5126,
			"count":576,
			"type":"VEC2"
		},
		{
			"bufferView":41,
			"componentType":5126,
			"count":576,
			"type":"VEC3"
		},
		{
			"bufferView":42,
			"componentType":5126,
			"count":48,
			"max":[
				0.43800002336502075,
				0.2718382775783539,
				0.23000000417232513
			],
			"min":[
				0,
				0,
				-0.4490000307559967
			],
			"type":"VEC3"
		},
		{
			"bufferView":43,
			"componentType":5126,
			"count":48,
			"type":"VEC2"
		},
		{
			"bufferView":44,
			"componentType":5126,
			"count":48,
			"type":"VEC3"
		},
		{
			"bufferView":45,
			"componentType":5126,
			"count":48,
			"max":[
				0.4050000309944153,
				0.12757548689842224,
				0
			],
			"min":[
				0.01100000087171793,
				0,
				-0.4490000307559967
			],
			"type":"VEC3"
		},
		{
			"bufferView":46,
			"componentType":5126,
			"count":48,
			"type":"VEC2"
		},
		{
			"bufferView":47,
			"componentType":5126,
			"count":48,
			"type":"VEC3"
		},
		{
			"bufferView":48,
			"componentType":5126,
			"count":72,
			"max":[
				0.5,
				0.1992180198431015,
				8.881784197001252e-16
			],
			"min":[
				0,
				0,
				-0.4490000307559967
			],
			"type":"VEC3"
		},
		{
			"bufferView":49,
			"componentType":5126,
			"count":72,
			"type":"VEC2"
		},
		{
			"bufferView":50,
			"componentType":5126,
			"count":72,
			"type":"VEC3"
		}
	],
	"bufferViews":[
		{
			"buffer":0,
			"byteLength":2304,
			"byteOffset":0,
			"target":34962
		},
		{
			"buffer":0,
			"byteLength":1536,
			"byteOffset":2304,
			"target":34962
		},
		{
			"buffer":0,
			"byteLength":2304,
			"byteOffset":3840,
			"target":34962
		},
		{
			"buffer":0,
			"byteLength":744,
			"byteOffset":6144,
			"target":34963
		},
		{
			"buffer":0,
			"byteLength":2304,
			"byteOffset":6888,
			"target":34962
		},
		{
			"buffer":0,
			"byteLength":1536,
			"byteOffset":9192,
			"target":34962
		},
		{
			"buffer":0,
			"byteLength":2304,
			"byteOffset":10728,
			"target":34962
		},
		{
			"buffer":0,
			"byteLength":360,
			"byteOffset":13032,
			"target":34962
		},
		{
			"buffer":0,
			"byteLength":240,
			"byteOffset":13392,
			"target":34962
		},
		{
			"buffer":0,
			"byteLength":360,
			"byteOffset":13632,
			"target":34962
		},
		{
			"buffer":0,
			"byteLength":96,
			"byteOffset":13992,
			"target":34963
		},
		{
			"buffer":0,
			"byteLength":6132,
			"byteOffset":14088,
			"target":34962
		},
		{
			"buffer":0,
			"byteLength":4088,
			"byteOffset":20220,
			"target":34962
		},
		{
			"buffer":0,
			"byteLength":6132,
			"byteOffset":24308,
			"target":34962
		},
		{
			"buffer":0,
			"byteLength":1824,
			"byteOffset":30440,
			"target":34963
		},
		{
			"buffer":0,
			"byteLength":10668,
			"byteOffset":32264,
			"target":34962
		},
		{
			"buffer":0,
			"byteLength":7112,
			"byteOffset":42932,
			"target":34962
		},
		{
			"buffer":0,
			"byteLength":10668,
			"byteOffset":50044,
			"target":34962
		},
		{
			"buffer":0,
			"byteLength":3168,
			"byteOffset":60712,
			"target":34963
		},
		{
			"buffer":0,
			"byteLength":2088,
			"byteOffset":63880,
			"target":34962
		},
		{
			"buffer":0,
			"byteLength":1392,
			"byteOffset":65968,
			"target":34962
		},
		{
			"buffer":0,
			"byteLength":2088,
			"byteOffset":67360,
			"target":34962
		},
		{
			"buffer":0,
			"byteLength":1044,
			"byteOffset":69448,
			"target":34963
		},
		{
			"buffer":0,
			"byteLength":864,
			"byteOffset":70492,
			"target":34962
		},
		{
			"buffer":0,
			"byteLength":576,
			"byteOffset":71356,
			"target":34962
		},
		{
			"buffer":0,
			"byteLength":864,
			"byteOffset":71932,
			"target":34962
		},
		{
			"buffer":0,
			"byteLength":264,
			"byteOffset":72796,
			"target":34963
		},
		{
			"buffer":0,
			"byteLength":576,
			"byteOffset":73060,
			"target":34962
		},
		{
			"buffer":0,
			"byteLength":384,
			"byteOffset":73636,
			"target":34962
		},
		{
			"buffer":0,
			"byteLength":576,
			"byteOffset":74020,
			"target":34962
		},
		{
			"buffer":0,
			"byteLength":168,
			"byteOffset":74596,
			"target":34963
		},
		{
			"buffer":0,
			"byteLength":576,
			"byteOffset":74764,
			"target":34962
		},
		{
			"buffer":0,
			"byteLength":384,
			"byteOffset":75340,
			"target":34962
		},
		{
			"buffer":0,
			"byteLength":576,
			"byteOffset":75724,
			"target":34962
		},
		{
			"buffer":0,
			"byteLength":168,
			"byteOffset":76300,
			"target":34963
		},
		{
			"buffer":0,
			"byteLength":6912,
			"byteOffset":76468,
			"target":34962
		},
		{
			"buffer":0,
			"byteLength":4608,
			"byteOffset":83380,
			"target":34962
		},
		{
			"buffer":0,
			"byteLength":6912,
			"byteOffset":87988,
			"target":34962
		},
		{
			"buffer":0,
			"byteLength":2232,
			"byteOffset":94900,
			"target":34963
		},
		{
			"buffer":0,
			"byteLength":6912,
			"byteOffset":97132,
			"target":34962
		},
		{
			"buffer":0,
			"byteLength":4608,
			"byteOffset":104044,
			"target":34962
		},
		{
			"buffer":0,
			"byteLength":6912,
			"byteOffset":108652,
			"target":34962
		},
		{
			"buffer":0,
			"byteLength":576,
			"byteOffset":115564,
			"target":34962
		},
		{
			"buffer":0,
			"byteLength":384,
			"byteOffset":116140,
			"target":34962
		},
		{
			"buffer":0,
			"byteLength":576,
			"byteOffset":116524,
			"target":34962
		},
		{
			"buffer":0,
			"byteLength":576,
			"byteOffset":117100,
			"target":34962
		},
		{
			"buffer":0,
			"byteLength":384,
			"byteOffset":117676,
			"target":34962
		},
		{
			"buffer":0,
			"byteLength":576,
			"byteOffset":118060,
			"target":34962
		},
		{
			"buffer":0,
			"byteLength":864,
			"byteOffset":118636,
			"target":34962
		},
		{
			"buffer":0,
			"byteLength":576,
			"byteOffset":119500,
			"target":34962
		},
		{
			"buffer":0,
			"byteLength":864,
			"byteOffset":120076,
			"target":34962
		}
	],
	"buffers":[
		{
			"byteLength":120940,
			"uri":"data:application/octet-stream;base64,"
		}
	]
}
